<svg xmlns="http://www.w3.org/2000/svg" viewBox="0 0 92.32 92.32">
  <defs>
    <clipPath id="a" transform="translate(0 0)">
      <path fill="none" d="M0 0h92.32v92.32H0z"/>
    </clipPath>
  </defs>
  <g clip-path="url(#a)" fill="#fcb316">
    <path d="M83 72.05a1.68 1.68 0 1 1 0-2.37 1.68 1.68 0 0 1 0 2.37m-3.35-11.39a1.67 1.67 0 1 1 0-2.37 1.68 1.68 0 0 1 0 2.37m-9.85 9.86a1.67 1.67 0 1 1 0-2.37 1.68 1.68 0 0 1 0 2.37M71.06 84a1.68 1.68 0 1 1 0-2.37 1.68 1.68 0 0 1 0 2.37m-11.12-3.62a1.67 1.67 0 1 1 0-2.37 1.68 1.68 0 0 1 0 2.37M8.07 20.44a1.68 1.68 0 1 1 0 2.37 1.68 1.68 0 0 1 0-2.37m3.33 11.4a1.68 1.68 0 1 1 0 2.37 1.68 1.68 0 0 1 0-2.37M21.26 22a1.68 1.68 0 1 1 0 2.37 1.68 1.68 0 0 1 0-2.37M20 8.52a1.68 1.68 0 1 1 0 2.37 1.68 1.68 0 0 1 0-2.37m11.12 3.6a1.68 1.68 0 1 1 0 2.37 1.68 1.68 0 0 1 0-2.37m40.93-2.79a1.68 1.68 0 1 1-2.37 0 1.68 1.68 0 0 1 2.37 0m-11.39 3.33a1.67 1.67 0 1 1-2.37 0 1.67 1.67 0 0 1 2.37 0m9.86 9.86a1.67 1.67 0 1 1-2.37 0 1.67 1.67 0 0 1 2.37 0M84 21.26a1.68 1.68 0 1 1-2.37 0 1.68 1.68 0 0 1 2.37 0m-3.62 11.12a1.67 1.67 0 1 1-2.37 0 1.67 1.67 0 0 1 2.37 0M20.44 84.25a1.68 1.68 0 1 1 2.37 0 1.68 1.68 0 0 1-2.37 0m11.4-3.33a1.68 1.68 0 1 1 2.37 0 1.68 1.68 0 0 1-2.37 0M22 71.06a1.68 1.68 0 1 1 2.37 0 1.68 1.68 0 0 1-2.37 0M8.52 72.32a1.67 1.67 0 1 1 2.37 0 1.67 1.67 0 0 1-2.37 0m3.6-11.12a1.68 1.68 0 1 1 2.37 0 1.68 1.68 0 0 1-2.37 0m34.34-1.07a1.26 1.26 0 0 1-.83-.31C44.41 58.76 33.75 49.3 33 43.23a7 7 0 0 1 2.77-6.94 6.6 6.6 0 0 1 7.09 0 10.68 10.68 0 0 1 3.89 4.37c1.45-3.24 4.24-5.21 7.53-5a6.05 6.05 0 0 1 5.27 3.08c1.45 2.64.81 6.2-.39 8.38-2.48 4.52-11.45 12.32-11.83 12.65a1.27 1.27 0 0 1-.87.36z"/>
    <path d="M86 55.38l-9.22-9.22L86 36.93a21.64 21.64 0 1 0-30.6-30.6l-9.22 9.22-9.25-9.21a21.64 21.64 0 1 0-30.6 30.6l9.22 9.22-9.21 9.22A21.64 21.64 0 0 0 36.93 86l9.22-9.22L55.38 86A21.652 21.652 0 1 0 86 55.38zM57.63 8.58a18.46 18.46 0 0 1 26.1 26.1l-9.22 9.22L48.4 17.81zm14.63 37.58l-26.1 26.1-26.1-26.1 26.1-26.1zM8.58 34.69a18.46 18.46 0 1 1 26.1-26.1l9.22 9.22-26.1 26.1zm26.11 49a18.46 18.46 0 0 1-26.1-26.1l9.22-9.22 26.1 26.1zm49 0a18.46 18.46 0 0 1-26.1 0l-9.19-9.18 26.1-26.1 9.22 9.22a18.46 18.46 0 0 1 0 26.1z"/>
  </g>
</svg>
