<?xml version="1.0" encoding="utf-8"?>
<!-- Generator: Adobe Illustrator 21.0.2, SVG Export Plug-In . SVG Version: 6.00 Build 0)  -->
<svg version="1.1" id="Layer_1" xmlns="http://www.w3.org/2000/svg" xmlns:xlink="http://www.w3.org/1999/xlink" x="0px" y="0px"
	 viewBox="0 0 70 70" style="enable-background:new 0 0 70 70;" xml:space="preserve">
<style type="text/css">
	.st0{fill:#FFFFFF;}
</style>
<g>
	<path class="st0" d="M47.3,0L22.6,0c-4.1,0-7.4,3.5-7.4,7.7l0,54.6c0,4.2,3.3,7.7,7.4,7.7l24.7,0c4.1,0,7.4-3.5,7.4-7.7l0-54.6
		C54.8,3.4,51.4,0,47.3,0z M35,68.6c-2.1,0-3.7-1.7-3.7-3.9c0-2.1,1.7-3.9,3.7-3.9c2.1,0,3.7,1.7,3.7,3.9
		C38.7,66.8,37.1,68.6,35,68.6z M51.7,58.4l-33.4,0l0-50.7c0-2.5,1.9-4.5,4.3-4.5l24.7,0c2.4,0,4.3,2,4.4,4.5L51.7,58.4z"/>
	<path class="st0" d="M45.9,27.7c-0.6,0.1-0.9,0.7-0.8,1.2c0.2,1,0.2,2.1,0.1,3.1c-0.7,5.8-5.8,10-11.4,9.3c-2.7-0.3-5.1-1.7-6.8-4
		c-1.7-2.2-2.4-5-2.1-7.8c0.7-5.8,5.8-10,11.4-9.3c1.6,0.2,3.1,0.8,4.5,1.7c0.5,0.3,1.1,0.2,1.4-0.3c0.3-0.5,0.2-1.1-0.3-1.5
		c-1.6-1.1-3.5-1.8-5.4-2.1c-6.7-0.8-12.8,4.2-13.6,11.1c-0.4,3.4,0.5,6.7,2.5,9.4c2,2.7,4.9,4.4,8.2,4.8c0.5,0.1,1,0.1,1.5,0.1
		c6.1,0,11.4-4.8,12.2-11.2c0.1-1.3,0.1-2.5-0.1-3.7C47,28,46.4,27.6,45.9,27.7z"/>
	<path class="st0" d="M46.8,20.5c-0.7-0.5-1.6-0.4-2.1,0.3l-9.8,13.3l-4.6-5.7c-0.5-0.7-1.5-0.8-2.2-0.2c-0.6,0.6-0.7,1.6-0.2,2.2
		l5.8,7.2c0.3,0.4,0.7,0.6,1.2,0.6c0,0,0,0,0,0c0.5,0,0.9-0.2,1.2-0.6l10.9-14.9C47.6,22,47.5,21,46.8,20.5z"/>
</g>
</svg>
