<svg xmlns="http://www.w3.org/2000/svg" viewBox="0 0 119 91.71">
  <path d="M99.17 16.55c0 .66.53 1 1.34 1.34v-2.88a1.62 1.62 0 0 0-1.34 1.54z" fill="#fcb316"/>
  <path d="M101.3 3.13a17.72 17.72 0 0 0-16.33 10.9H71.33V8.89c0-4.9-3.45-8.89-7.7-8.89H37.76c-4.24 0-7.7 4-7.7 8.89v5.14h-15a15.05 15.05 0 0 0-15 15v47.6a15.05 15.05 0 0 0 15 15h71.32a15.05 15.05 0 0 0 15-15V38.52a17.695 17.695 0 0 0-.09-35.39zM33.56 8.89c0-3 1.88-5.39 4.2-5.39h25.88c2.31 0 4.2 2.42 4.2 5.39v5.14H33.56zm64.33 67.78a11.55 11.55 0 0 1-11.54 11.54H15.04A11.55 11.55 0 0 1 3.5 76.67v-47.6a11.55 11.55 0 0 1 11.54-11.54h68.88a17.63 17.63 0 0 0 14 20.65zm4-46.88v.81c0 .58 0 1.19-.68 1.19s-.68-.61-.68-1.19v-.76c-2-.05-5.51-.61-5.51-2.78a1.69 1.69 0 0 1 1.69-1.79c1.09 0 2.35.81 3.82 1v-4.22c-2.4-.71-5.44-1.37-5.44-5a5.72 5.72 0 0 1 5.44-5.69v-.78c0-.68 0-1.19.68-1.19s.68.5.68 1.19v.78c1.52.05 4.42.66 4.42 2.48a1.75 1.75 0 0 1-1.69 1.87c-.89 0-1.59-.56-2.73-.68v3.36c2.45.71 5.74 1.59 5.74 5.66-.02 3.32-2.6 5.49-5.76 5.79z" fill="#fcb316"/>
  <path d="M101.87 22.41v3.69a2 2 0 0 0 1.64-2c0-.88-.68-1.36-1.64-1.69zM30.46 42.39c-5.35 3.09.09 17.69 7.36 13.27 6.2-3.74-3.41-15.56-7.36-13.27zm11.61-11.01c6.28-.92 10.81 13.27 3.24 15.25-6.94 1.83-10.32-14.2-3.24-15.25zm17.79-.24c7.26 2.55 3.67 17.17-4 15.06s-3.26-17.59 4-15.06zm11.45 12.99c5.69 4.32-3.68 15.9-8.54 12-4.55-3.64 2.39-16.7 8.54-12zM50.5 46.6c5.37 0 6.21 4.22 9.43 8.3 4.34 5.5 8.72 10.34 5.11 14.22-4.79 5.15-8.08 1.11-15.06 1-6.31-.1-11.6 4-14.56-2.53-1.41-3.11 2.12-8 5.46-12.52s4.71-8.46 9.62-8.47z" fill="#fcb316"/>
</svg>
