<svg xmlns="http://www.w3.org/2000/svg" viewBox="0 0 104.76 123.1">
  <path d="M87.72 122.73l16.38-12.8a1.73 1.73 0 0 0 .3-2.43l-3.9-5a1.73 1.73 0 0 0-2.43-.3l-1.52 1.19-6.45-8.25 7.36-5.75a1.78 1.78 0 0 0 .3-2.43l-6.42-8.22a1.73 1.73 0 0 0-2.43-.3l-4.41 3.45-26.3-33.67a1.64 1.64 0 0 0-2.3-.28l-3 2.36-17.5-14.2a1.72 1.72 0 0 0-2.64 2.06l9.54 20.42-3.45 2.69a1.64 1.64 0 0 0-.28 2.3l26.3 33.67-4.43 3.47a1.73 1.73 0 0 0-.3 2.43l6.42 8.22a1.73 1.73 0 0 0 2.43.3l7.42-5.8 6.45 8.25-1.16.91a1.73 1.73 0 0 0-.3 2.43l3.9 5a1.73 1.73 0 0 0 2.42.28zM39.01 43.5l11.09 9-5 3.94zm3.13 19.37L45 60.63h.11a1.7 1.7 0 0 0 .67-.57l7.64-6a1.7 1.7 0 0 0 .71-.51l.06-.09 2.44-1.91 4.9 6.27-.09.05-9.61 7.51a1.73 1.73 0 1 0 2.13 2.72l9.61-7.51.07-.07 4.8 6.15-.09.05-9.61 7.51a1.73 1.73 0 0 0 2.13 2.72l9.61-7.51.07-.07 4.8 6.15-.09.05-9.6 7.48a1.73 1.73 0 1 0 2.13 2.72l9.61-7.51.07-.07 4.29 5.5-14.49 11.36zm21.79 39.5l25.76-20.12 4.3 5.5-12.85 10-5.5 4.3-7.42 5.8zm15.21 1.36l8.25-6.45 6.45 8.25-8.25 6.45zm6 12.95l13.7-10.63 1.77 2.27-13.66 10.67zM28.79 32.8a1.74 1.74 0 0 1 .64-1.15 1.71 1.71 0 0 1 1.27-.36 1.73 1.73 0 1 1-.42 3.43 1.85 1.85 0 0 1-.64-.21 1.79 1.79 0 0 1-.51-.45 1.72 1.72 0 0 1-.34-1.26zm-6.2-20.94a1.74 1.74 0 0 1 2-1.34 1.73 1.73 0 0 1 1.34 2 1.73 1.73 0 0 1-2 1.34 1.72 1.72 0 0 1-1.36-1.9zm1.5 6a1.72 1.72 0 0 1 2 1.34 1.72 1.72 0 0 1-1.34 2 1.72 1.72 0 0 1-2-1.34 1.79 1.79 0 0 1 0-.57 1.73 1.73 0 0 1 1.33-1.41zm2.35-13.31a1.73 1.73 0 0 1 2.44 0 1.72 1.72 0 0 1 0 2.44 1.72 1.72 0 0 1-2.44 0 1.72 1.72 0 0 1-.51-1.44 1.79 1.79 0 0 1 .51-1zm-.32 20.5a1.72 1.72 0 0 1 2.3.83 1.73 1.73 0 0 1-.84 2.3 1.73 1.73 0 0 1-2.3-.83 1.75 1.75 0 0 1-.16-.95 1.71 1.71 0 0 1 1-1.35zm6.07-23.53a1.66 1.66 0 0 1 .21-.64 1.6 1.6 0 0 1 .44-.51 1.71 1.71 0 0 1 1.27-.36 1.28 1.28 0 0 1 .33.08 1.18 1.18 0 0 1 .3.14 1.75 1.75 0 0 1 .51.44 1.77 1.77 0 0 1-.3 2.42 1.15 1.15 0 0 1-.28.19 2.18 2.18 0 0 1-.32.12l-.33.06a1.88 1.88 0 0 1-.34 0 1.69 1.69 0 0 1-1.15-.65 1.61 1.61 0 0 1-.3-.6 1.66 1.66 0 0 1-.04-.69zM.68 19.39a1.72 1.72 0 0 1 2.42.34 1.71 1.71 0 0 1-.34 2.42 1.72 1.72 0 0 1-2.42-.34 1.73 1.73 0 0 1-.33-1.25 1.72 1.72 0 0 1 .67-1.17zm7.54-2.55a1.72 1.72 0 0 1 1.75 1.71 1.73 1.73 0 0 1-1.7 1.76 1.73 1.73 0 0 1-1.75-1.71 1.8 1.8 0 0 1 0-.24 1.72 1.72 0 0 1 1.7-1.52zm5.22 2.54a1.73 1.73 0 0 1 2.27-.92 1.72 1.72 0 0 1 .92 2.26 1.73 1.73 0 0 1-2.26.92 1.72 1.72 0 0 1-1-1.8 2 2 0 0 1 .07-.46zm6.29 3.11a1.74 1.74 0 0 1 2.44-.24 1.73 1.73 0 0 1 .24 2.43 1.72 1.72 0 0 1-2.43.25 1.73 1.73 0 0 1-.63-1.55 1.76 1.76 0 0 1 .38-.89z" fill="#fcb316"/>
</svg>
