<?xml version="1.0" encoding="utf-8"?>
<!-- Generator: Adobe Illustrator 21.0.2, SVG Export Plug-In . SVG Version: 6.00 Build 0)  -->
<svg version="1.1" id="Layer_1" xmlns="http://www.w3.org/2000/svg" xmlns:xlink="http://www.w3.org/1999/xlink" x="0px" y="0px"
	 viewBox="0 0 94 72" style="enable-background:new 0 0 94 72;" xml:space="preserve">
<style type="text/css">
	.st0{fill:#FFFFFF;}
</style>
<g>
	<path class="st0" d="M72.7,19.9c0,0.5,0.4,0.8,1,1v-2.1C73.2,18.9,72.7,19.3,72.7,19.9z"/>
	<path class="st0" d="M74.3,9.8c-6,0-11.1,4-12.8,9.5H8.1c-0.8,0-1.5,0.7-1.5,1.5v40.6c0,0,0,0.1,0.1,0.1c0,0,0,0.1,0.1,0.1l0.1,0.1
		v0.1L7,61.9L7.1,62c0.1,0,0.1,0.1,0.2,0.1h0.1c0.1,0,0.2,0.1,0.2,0.1h64.9c0.1,0,0.2,0,0.2-0.1h0.1c0.1,0,0.1-0.1,0.2-0.1
		c0,0,0.1,0,0.1-0.1c0.1,0,0.1-0.1,0.1-0.1v-0.1l0.1-0.1c0,0,0-0.1,0.1-0.1c0,0,0-0.1,0.1-0.1v-0.1v-0.1V61V36.3h0.6
		c7.3,0,13.3-6,13.3-13.3S81.6,9.8,74.3,9.8z M61,22.3V23c0,1.1,0.1,2.2,0.4,3.2L39.9,42.1L13.5,22.3H61z M9.6,23.4l21.4,16
		L9.6,57.7V23.4z M12.2,59.4l21.3-18.1l5.5,4.1c0.3,0.2,0.6,0.3,1,0.3c0.3,0,0.7-0.1,1-0.3l5.8-4.3l21.5,18.3
		C68.3,59.4,12.2,59.4,12.2,59.4z M70.7,57.7L49.1,39.3l13.5-9.9c1.7,3.1,4.6,5.5,8.1,6.5C70.7,35.9,70.7,57.7,70.7,57.7z
		 M74.7,29.7v0.6c0,0.4,0,0.9-0.5,0.9s-0.5-0.4-0.5-0.9v-0.6c-1.5,0-4.1-0.4-4.1-2.1c0-0.7,0.5-1.3,1.2-1.3c0.8,0,1.7,0.6,2.8,0.7
		v-3.1c-1.8-0.5-4-1-4-3.7c0-2.4,1.8-4,4-4.2v-0.5c0-0.5,0-0.9,0.5-0.9s0.5,0.4,0.5,0.9v0.6c1.1,0,3.3,0.5,3.3,1.8
		c0,0.7-0.5,1.4-1.2,1.4s-1.2-0.4-2-0.5v2.5c1.8,0.5,4.2,1.2,4.2,4.2C79,27.9,77.1,29.5,74.7,29.7z"/>
	<path class="st0" d="M74.7,24.2v2.7c0.8-0.2,1.2-0.8,1.2-1.5C75.9,24.8,75.4,24.5,74.7,24.2z"/>
</g>
</svg>
