<?xml version="1.0" encoding="utf-8"?>
<!-- Generator: Adobe Illustrator 21.0.2, SVG Export Plug-In . SVG Version: 6.00 Build 0)  -->
<svg version="1.1" id="Layer_1" xmlns="http://www.w3.org/2000/svg" xmlns:xlink="http://www.w3.org/1999/xlink" x="0px" y="0px"
	 viewBox="0 0 70 70" style="enable-background:new 0 0 70 70;" xml:space="preserve">
<style type="text/css">
	.st0{fill:#FFFFFF;}
</style>
<g>
	<path class="st0" d="M59.4,12.6c-4.6,0-8.5,3-9.9,7.2H1.4c-0.7,0-1.3,0.6-1.3,1.3v35.2c0,0,0,0,0,0.1v0.1v0.1v0.1
		c0,0,0,0.1,0.1,0.1c0,0,0,0.1,0.1,0.1l0.1,0.1c0,0,0,0,0,0.1l0,0l0.1,0.1c0,0,0.1,0,0.1,0.1c0,0,0.1,0.1,0.2,0.1h0.1
		c0.1,0,0.1,0,0.2,0.1c0,0,0,0,0.1,0s0.2,0,0.3,0h56.2c0.1,0,0.2,0,0.3,0c0,0,0,0,0.1,0s0.1,0,0.2-0.1h0.1c0.1,0,0.1-0.1,0.2-0.1
		c0,0,0.1,0,0.1-0.1l0.1-0.1l0,0c0,0,0,0,0-0.1l0.1-0.1c0,0,0-0.1,0.1-0.1c0,0,0-0.1,0.1-0.1v-0.1v-0.1v-0.1c0,0,0,0,0-0.1V33.3
		c0.2,0,0.4,0,0.5,0c5.8,0,10.5-4.7,10.5-10.5S65.2,12.6,59.4,12.6z M49.1,22.3c0,0.2,0,0.4,0,0.6c0,0.7,0.1,1.4,0.2,2L29.3,39.7
		L6.2,22.3H49.1z M2.7,23.2l18.7,14.1l-18.7,16C2.7,53.2,2.7,23.2,2.7,23.2z M5,54.8L23.6,39l4.8,3.6c0.3,0.2,0.5,0.3,0.8,0.3
		s0.6-0.1,0.8-0.3l5.1-3.8l18.8,16.1H5z M56.3,53.3L37.4,37.2l12.9-9.5c1.3,2.4,3.5,4.3,6.1,5.2V53.3z M59.4,31.1
		c-4.5,0-8.1-3.7-8.1-8.1S55,15,59.4,15c4.5,0,8.1,3.7,8.1,8.1S63.9,31.1,59.4,31.1z"/>
	<path class="st0" d="M59.8,21.5v-1.9c0.6,0.1,1,0.4,1.5,0.4c0.6,0,0.9-0.5,0.9-1c0-1-1.6-1.3-2.5-1.4v-0.4c0-0.4,0-0.7-0.4-0.7
		s-0.4,0.3-0.4,0.7v0.4l0,0c-1.7,0.2-3,1.4-3,3.2c0,2,1.7,2.4,3,2.8v2.3c-0.8-0.1-1.5-0.5-2.1-0.5s-0.9,0.4-0.9,1
		c0,1.2,1.9,1.5,3.1,1.5v0.4c0,0.3,0,0.7,0.4,0.7s0.4-0.3,0.4-0.7v-0.4l0,0c1.8-0.1,3.2-1.3,3.2-3.2C62.9,22.4,61.1,21.9,59.8,21.5z
		 M59,21.3c-0.4-0.2-0.7-0.4-0.7-0.7c0-0.4,0.3-0.7,0.7-0.9V21.3z M59.8,25.8v-2c0.5,0.2,0.9,0.4,0.9,0.9
		C60.7,25.2,60.3,25.7,59.8,25.8z"/>
</g>
</svg>
