<svg xmlns="http://www.w3.org/2000/svg" viewBox="0 0 96.88 91.27">
  <path d="M67.64 42.82h-6.29v-6.29a.7.7 0 0 0-.7-.7H52.4a.7.7 0 0 0-.7.7v6.29h-6.29a.7.7 0 0 0-.7.7v8.25a.7.7 0 0 0 .7.7h6.29v6.29a.7.7 0 0 0 .7.7h8.25a.7.7 0 0 0 .7-.7v-6.33h6.29a.7.7 0 0 0 .7-.7v-8.25a.7.7 0 0 0-.7-.66z" fill="#fcb316"/>
  <path d="M96.48 71.53a10.6 10.6 0 0 0-13.07-7.35l-7.13 2V18.43h1.88a1.59 1.59 0 0 0 1.59-1.59V1.59A1.59 1.59 0 0 0 78.16 0h-43.3a1.59 1.59 0 0 0-1.59 1.59v15.26a1.59 1.59 0 0 0 1.59 1.58h1.91v39.82a10.55 10.55 0 0 0-6.47 3.05l-5.14 5.13-1.45-3.33-3.35-7.7A10.6 10.6 0 1 0 .92 63.86l3.35 7.7 3.35 7.7a10.59 10.59 0 0 0 9 6.31 10.61 10.61 0 0 0 16.87 2.54l4.49-4.49a1.57 1.57 0 0 0 .44.07h22.32a10.58 10.58 0 0 0 12.28 5.37l8.08-2.26 8.08-2.26a10.6 10.6 0 0 0 7.35-13.07zm-72.09 6.34a7.6 7.6 0 0 1-14 .25L7.64 71.8l13.94-6.07 2.75 6.32a7.55 7.55 0 0 1 .05 5.82zm12.07-62.61V3.18H76.6v12.08zm1.85 63.79L27.56 68.3l4.88-4.87a7.6 7.6 0 0 1 10.72 10.74zm21.33 1.52H41.02l4.28-4.28a10.59 10.59 0 0 0-5.35-17.86V18.9H73.1v48.16l-5.86 1.64a10.61 10.61 0 0 0-7.61 11.87zm12.52 5.66a7.602 7.602 0 0 1-4.1-14.64l6.64-1.86 4.1 14.64z" fill="#fcb316"/>
</svg>
