<?xml version="1.0" encoding="utf-8"?>
<!-- Generator: Adobe Illustrator 21.0.2, SVG Export Plug-In . SVG Version: 6.00 Build 0)  -->
<svg version="1.1" id="Layer_1" xmlns="http://www.w3.org/2000/svg" xmlns:xlink="http://www.w3.org/1999/xlink" x="0px" y="0px"
	 viewBox="0 0 70 70" style="enable-background:new 0 0 70 70;" xml:space="preserve">
<style type="text/css">
	.st0{fill:#FFFFFF;}
</style>
<path class="st0" d="M70,34.8c0-3.5-2.9-6.4-6.4-6.4s-6.4,2.9-6.4,6.4c0,2.9,1.9,5.3,4.5,6.1c-0.3,13.3-7.2,24-15.6,24
	c-5.5,0-10.8-5-13.6-12.8c0.1-0.1,0.1-0.2,0.2-0.3c11.7-24.1,14.9-39.1,9.5-45.9c-2.5-3.2-6.7-4.3-12.4-3.4c-0.8-0.8-2-1.2-3.2-1
	c-1.9,0.4-3,2.3-2.6,4.1c0.4,1.9,2.3,3,4.1,2.6c1.2-0.3,2.1-1.1,2.5-2.1c4.2-0.7,7.1,0,8.8,2c3.4,4.3,1.3,14.1-2.2,24
	c-0.1,0.1-0.2,0.2-0.3,0.4c-2,3.5-5.4,6-9.3,6.9c-3.5,0.8-7.2,0.2-10.3-1.6c-0.2-0.1-0.4-0.2-0.6-0.2C9,29.9,2.6,21.6,3.9,16.1
	c0.6-2.6,2.9-4.4,7.1-5.5c0.8,0.6,1.8,0.8,2.8,0.6c1.9-0.4,3-2.3,2.6-4.1c-0.4-1.9-2.3-3-4.1-2.6c-1.4,0.3-2.4,1.4-2.6,2.7
	c-5.3,1.6-8.4,4.3-9.3,8.2c-2,8.4,7.2,20.7,28,37.6c0.2,0.2,0.5,0.3,0.9,0.4c3.3,9.5,9.8,15.4,17.1,15.4c10.4,0,18.9-12.3,19.3-27.7
	C68.1,40.1,70,37.6,70,34.8z M22.9,43.4c0.5,0.1,1.1,0.1,1.6,0.1c1.3,0,2.6-0.1,3.9-0.4c1.9-0.4,3.7-1.2,5.4-2.2
	c-1.3,3-2.6,5.9-3.9,8.5l0,0C27.7,47.6,25.3,45.6,22.9,43.4z M63.6,37.4c-1.5,0-2.7-1.2-2.7-2.7c0-1.5,1.2-2.7,2.7-2.7
	c1.5,0,2.7,1.2,2.7,2.7C66.3,36.2,65.1,37.4,63.6,37.4z"/>
</svg>
