<?xml version="1.0" encoding="utf-8"?>
<!-- Generator: Adobe Illustrator 21.0.2, SVG Export Plug-In . SVG Version: 6.00 Build 0)  -->
<svg version="1.1" id="Layer_1" xmlns="http://www.w3.org/2000/svg" xmlns:xlink="http://www.w3.org/1999/xlink" x="0px" y="0px"
	 viewBox="0 0 81 63" style="enable-background:new 0 0 81 63;" xml:space="preserve">
<style type="text/css">
	.st0{fill:#FCB316;}
	.st1{fill:#FFFFFF;}
</style>
<g>
	<path class="st0" d="M68.1,56.7c0,0,0-0.1,0.1-0.1c0,0,0-0.1,0-0.1c0,0,0-0.1,0-0.1c0-0.1,0-0.1,0-0.2c0,0,0-0.1,0-0.1V15.3
		c0-0.8-0.7-1.5-1.5-1.5H1.6c-0.8,0-1.5,0.7-1.5,1.5V56c0,0,0,0.1,0,0.1c0,0.1,0,0.1,0,0.2c0,0,0,0.1,0,0.1c0,0,0,0.1,0,0.1
		c0,0,0,0.1,0.1,0.1c0,0,0,0.1,0.1,0.1c0,0,0.1,0.1,0.1,0.1c0,0,0,0,0,0.1c0,0,0,0,0,0c0,0.1,0.1,0.1,0.1,0.1c0,0,0.1,0.1,0.1,0.1
		c0.1,0,0.1,0.1,0.2,0.1c0,0,0.1,0,0.1,0c0.1,0,0.2,0.1,0.2,0.1c0,0,0,0,0.1,0c0.1,0,0.2,0,0.3,0h65.1c0.1,0,0.2,0,0.3,0
		c0,0,0,0,0.1,0c0.1,0,0.2,0,0.2-0.1c0,0,0.1,0,0.1-0.1c0.1,0,0.1-0.1,0.2-0.1c0,0,0.1-0.1,0.1-0.1c0.1,0,0.1-0.1,0.1-0.1
		c0,0,0,0,0,0c0,0,0,0,0-0.1c0,0,0.1-0.1,0.1-0.1C68,56.8,68.1,56.7,68.1,56.7z M33.9,36.9L7.1,16.8h54.1L33.9,36.9z M3.1,17.9
		l21.7,16.3L3.1,52.7V17.9z M27.4,36.1l5.6,4.2c0.3,0.2,0.6,0.3,1,0.3c0.3,0,0.7-0.1,1-0.3l5.9-4.3l21.8,18.6H5.8L27.4,36.1z
		 M43.3,34l21.9-16.2v34.8L43.3,34z"/>
	<g>
		<circle class="st1" cx="68.9" cy="17.5" r="10.7"/>
		<path class="st0" d="M68.9,29.6c-6.7,0-12.1-5.4-12.1-12.1S62.2,5.5,68.9,5.5s12.1,5.4,12.1,12.1S75.5,29.6,68.9,29.6z M68.9,8.1
			c-5.2,0-9.4,4.2-9.4,9.4s4.2,9.4,9.4,9.4s9.4-4.2,9.4-9.4S74,8.1,68.9,8.1z"/>
	</g>
	<g>
		<path class="st0" d="M68.3,18.2c-1.5-0.5-3.5-0.9-3.5-3.2c0-2.1,1.6-3.4,3.5-3.6v0v-0.5c0-0.4,0-0.8,0.4-0.8
			c0.4,0,0.4,0.3,0.4,0.8v0.5c1,0,2.8,0.4,2.8,1.6c0,0.6-0.4,1.2-1.1,1.2c-0.6,0-1-0.4-1.7-0.4v2.2c1.6,0.5,3.7,1,3.7,3.6
			c0,2.2-1.7,3.5-3.7,3.7v0v0.5c0,0.4,0,0.8-0.4,0.8c-0.4,0-0.4-0.4-0.4-0.8v-0.5c-1.3,0-3.5-0.4-3.5-1.8c0-0.6,0.4-1.1,1.1-1.1
			c0.7,0,1.5,0.5,2.4,0.6V18.2z M68.3,13.8c-0.5,0.1-0.9,0.5-0.9,1c0,0.4,0.3,0.7,0.9,0.9V13.8z M69.2,20.9c0.7-0.2,1.1-0.7,1.1-1.3
			c0-0.5-0.4-0.8-1.1-1.1V20.9z"/>
	</g>
</g>
</svg>
