<svg xmlns="http://www.w3.org/2000/svg" viewBox="0 0 277.57 82.64"><path d="M165.55 3.07l-6 51.24c-.42 3.44.38 6.32 2.32 8.32 2.44 2.52 6.59 3.58 12 3.07l.61-.06.86-6.58h-.84c-2.84-.1-4.28-.48-5-1.29-.54-.64-.7-1.7-.48-3.33L175.41.03z" fill="#fbb316"/><path d="M80.25 37.57c-.46-8.77-6.05-14-15-14a22.23 22.23 0 0 0-16.62 6.87c-4.59 4.87-6.89 11.68-6.46 19.17.61 10.09 7.61 16.11 18.73 16.11a38.3 38.3 0 0 0 13.68-2.59c.86-.37 1.77-.87 1.7-2.18v-.26l-.64-4.48a1.38 1.38 0 0 0-1.42-1.32 2.38 2.38 0 0 0-.77.17l-.33.1a31.57 31.57 0 0 1-10.22 1.92c-5.75 0-9.36-3.28-9.64-8.79v-1h23.28c2.14 0 3.11-.23 3.37-2.46a58.38 58.38 0 0 0 .38-6.35c-.02-.35-.02-.65-.04-.91zM70 40.13H54.47c1.26-4 5.28-8.2 9.94-8.2 3.72 0 5.48 1.88 5.7 6.11v.66a12.34 12.34 0 0 1-.11 1.43z" fill="#fcb316"/><path d="M270.1 14.83a.45.45 0 0 1-.89 0v-5.9a.42.42 0 0 1 .48-.45h1.66a2 2 0 0 1 2.22 1.82 1.8 1.8 0 0 1-2 1.91h-.39l2.31 2.36a.49.49 0 0 1 .17.38.37.37 0 0 1-.41.32.54.54 0 0 1-.41-.19l-2.77-2.82zm0-3.23h1.22c.94 0 1.34-.37 1.34-1.24a1.23 1.23 0 0 0-1.36-1.15h-1.2z" fill="#fbb316"/><path d="M264.93 12.06a6.3 6.3 0 0 1 6.32-6.32 6.32 6.32 0 1 1 0 12.64 6.3 6.3 0 0 1-6.32-6.32zm11.73 0a5.64 5.64 0 0 0-5.41-5.41 5.41 5.41 0 0 0 0 10.82 5.66 5.66 0 0 0 5.41-5.41z" fill="#fbb316"/><path d="M36.69 37.86zm5.57-15.38c-.5-9.72-7.71-14.65-21.41-14.65H9.17c-2 0-2.55 1-2.72 2.55 0 0-6.35 54.15-6.42 54.81a1.5 1.5 0 0 0 0 .18h6.23c2-.16 4.14-2.29 5.25-5.33a11.08 11.08 0 0 0 .53-2l1.43-13.21c1.5.14 3 .21 4.52.21 7.77 0 14.43-2.55 18.74-7.18a21.43 21.43 0 0 0 5.6-14.37c-.05-.36-.06-.67-.07-1zm-15 10.36c-1.83 2-5.4 3.29-9.11 3.29-1.4 0-2.33 0-3.61-.06.1-.81 2.34-18.75 2.42-19.41h3.95c6 0 9.57 1 9.84 6.27a13.13 13.13 0 0 1-3.46 9.92z" fill="#fcb316"/><path d="M149.76 26.7a12.79 12.79 0 0 0-10.16-4.08c-12.87.17-19.09 6.36-20.21 7.59l-.16.18v.25l-6 52h4.72c2-.16 4.14-2.3 5.25-5.33a11.24 11.24 0 0 0 .52-2c.59-5.15 1.19-10.42 1.3-11.41a19.45 19.45 0 0 0 9.65 2.3h.83v-.14c11.24-.82 17.35-10.92 18.43-20.81a38.32 38.32 0 0 0 .26-4.38c-.03-5.97-1.56-11-4.43-14.17zm-6.47 18.11c-.71 6-2.4 13-9.29 13.4-2.91.22-5.87-1.14-8-2.43l2.77-22.86a15.69 15.69 0 0 1 6.5-2.26c.26 0 1.06-.08 1.25-.08.51 0 1.21.05 1.21.05a5 5 0 0 1 3.85 1.72c1.32 1.54 2 4.14 2 7.77a40.58 40.58 0 0 1-.29 4.69zm61.49 15.69l-.56 5h4.81c1.94-.23 4.05-2.33 5.15-5.32a11.31 11.31 0 0 0 .45-1.58l4-35.08-.6-.11a71.13 71.13 0 0 0-11.68-.81 28.27 28.27 0 0 0-20.46 8.67 26.75 26.75 0 0 0-7.14 20.36c.48 9.13 7.46 13.91 14.12 13.91 4.99-.02 9.03-1.74 11.91-5.04zm-10.57-3.16c-3.63 0-5.67-2.19-5.89-6.35a19.62 19.62 0 0 1 5.28-14.71 17.3 17.3 0 0 1 12.4-5.54c.88 0 1.56 0 2.15.09-.18 1.35-1.19 10.37-1.19 10.37-1.28 9.66-7.66 16.14-12.74 16.14z" fill="#fbb316"/><path d="M100.3 32.13h4.17c2-.16 4.14-2.29 5.25-5.33a11.3 11.3 0 0 0 .56-2.2h-9.18c.08-.67.92-8.16 1.21-10.73L91.47 17.4l-.9 7.23h-3.78a2 2 0 0 0-2.08 2l-.51 3.72a1.81 1.81 0 0 0 0 .19 1.42 1.42 0 0 0 .37 1 2.35 2.35 0 0 0 1.74.67h3.44l-2.13 17.63-.12 1a35.85 35.85 0 0 0-.35 4.36v1.16c.34 5.87 4.6 9.38 11.38 9.38a25.83 25.83 0 0 0 9.85-2 1.78 1.78 0 0 0 1.22-1.85v-.08l-.34-4.46a1.32 1.32 0 0 0-1.35-1.34 2.68 2.68 0 0 0-.93.18l-.2.06a18.38 18.38 0 0 1-5 .89c-2.66 0-3.64-.81-3.78-3.11v-1a31.48 31.48 0 0 1 .31-3.84z" fill="#fcb316"/><path d="M246.64 32.04a6.53 6.53 0 0 1 1.31 5.27l-2.74 28.14h4.76c2-.16 4.14-2.29 5.25-5.33a11.45 11.45 0 0 0 .51-1.86l2.45-23.89c.7-6.78-4.37-10.36-8.92-11.37-4.91-1.13-9.64-.13-12.78.72-4.49 1.23-7.86 3.38-11.47 5.87l-.29.2-3.77 35.67h4.74c2-.16 4.14-2.29 5.25-5.33a11.29 11.29 0 0 0 .54-2l2.59-25.62a16.61 16.61 0 0 1 7.25-2.27 6.81 6.81 0 0 1 5.32 1.8z" fill="#fbb316"/></svg>